Coordinates
version=1
nRows=21
nColumns=12
inDegrees=yes

Units are S.I. units (second, meters, Newtons, ...)
Angles are in degrees

endheader
time	SC_y	SC_z	SC_x	AC_y	AC_z	AC_x	GH_y	GH_z	GH_yy	EL_x	PS_y
       0.0              -21.12          22.56           82.0          40.46         -10.37          3.134          129.3          24.54         -149.4          56.05          142.8
   0.03285              -21.12          22.56          81.99          40.46         -10.37          3.131          129.2          24.54         -149.3          56.05          142.8
   0.06571              -21.13          22.56          81.99          40.46         -10.37          3.129          129.2          24.55         -149.3          56.06          142.8
   0.09856              -21.13          22.55          81.98          40.46         -10.37          3.126          129.2          24.56         -149.2          56.06          142.8
    0.1314              -21.14          22.55          81.98          40.46         -10.37          3.123          129.2          24.57         -149.2          56.06          142.8
    0.1643              -21.14          22.55          81.97          40.46         -10.37          3.119          129.1          24.58         -149.1          56.07          142.7
    0.1971              -21.15          22.55          81.96          40.46         -10.37          3.116          129.1          24.59         -149.0          56.07          142.7
      0.23              -21.15          22.54          81.96          40.46         -10.37          3.112          129.0          24.61         -149.0          56.07          142.7
    0.2628              -21.16          22.54          81.95          40.46         -10.37          3.108          129.0          24.62         -148.9          56.08          142.7
    0.2957              -21.16          22.54          81.94          40.46         -10.37          3.104          129.0          24.63         -148.8          56.08          142.7
    0.3285              -21.17          22.53          81.93          40.46         -10.37          3.099          128.9          24.65         -148.7          56.09          142.7
    0.3614              -21.18          22.53          81.92          40.46         -10.36          3.094          128.9          24.66         -148.6          56.09          142.6
    0.3942              -21.19          22.52          81.91          40.46         -10.36          3.089          128.8          24.68         -148.5           56.1          142.6
    0.4271              -21.19          22.52           81.9          40.46         -10.36          3.083          128.7           24.7         -148.4          56.11          142.6
    0.4599               -21.2          22.51          81.89          40.45         -10.36          3.077          128.7          24.72         -148.3          56.11          142.6
    0.4928              -21.21          22.51          81.88          40.45         -10.36           3.07          128.6          24.74         -148.2          56.12          142.5
    0.5257              -21.22           22.5          81.86          40.45         -10.36          3.063          128.5          24.76         -148.1          56.13          142.5
    0.5585              -21.24           22.5          81.85          40.45         -10.36          3.055          128.4          24.79         -147.9          56.14          142.5
    0.5914              -21.25          22.49          81.83          40.45         -10.36          3.046          128.3          24.82         -147.7          56.15          142.4
    0.6242              -21.26          22.48          81.81          40.45         -10.35          3.036          128.2          24.85         -147.6          56.16          142.4
    0.6571              -21.28          22.47          81.79          40.45         -10.35          3.026          128.1          24.88         -147.4          56.17          142.3
